<svg id="Layer_1" data-name="Layer 1" xmlns="http://www.w3.org/2000/svg" viewBox="0 0 53.81 47.85"><path d="M17,22.7c0,.31,0,.56,0,.82,0,1-.38,1.48-1.14,1.49s-1.17-.48-1.17-1.52V6.21a6.21,6.21,0,0,1,.08-1.62,4.06,4.06,0,0,1,.83-1.45,1.06,1.06,0,0,1,1.53-.07,1.19,1.19,0,0,1,.23,1.54c-.38.62-.36.74.26,1.14A8.22,8.22,0,0,0,21,6.84a14,14,0,0,0,6.11-.45,6.56,6.56,0,0,0,1.43-.65c.75-.46.78-.88,0-1.25a10.47,10.47,0,0,0-3.09-1A33,33,0,0,0,21,3.41a1.22,1.22,0,0,1-1.32-1,1.1,1.1,0,0,1,1-1.35,15.79,15.79,0,0,1,8,.8A7.58,7.58,0,0,1,30.43,3a3,3,0,0,1,1.11,2.7c-.06,1.34,0,2.69,0,4v2a2.58,2.58,0,0,0,.38-.1,16,16,0,0,1,10.87-.18,7.73,7.73,0,0,1,2,1.11,3,3,0,0,1,1.23,2.82c-.07,1.28,0,2.57,0,3.85,0,1.57,0,3.14,0,4.7A1.06,1.06,0,0,1,44.88,25a1.08,1.08,0,0,1-1.14-1.08c0-.38,0-.78,0-1.25a16.65,16.65,0,0,1-12.15,0c-.18.65-.54,1.13-1.24,1.12s-1-.47-1.19-1.12A16.78,16.78,0,0,1,17,22.7ZM38,12.94a11.75,11.75,0,0,0-5.34,1,5.13,5.13,0,0,0-1.06.93c.35.29.65.73,1.05.86a18.49,18.49,0,0,0,3.48.88,11.91,11.91,0,0,0,6.38-.82,5.86,5.86,0,0,0,1.16-1,6.63,6.63,0,0,0-1.15-.92A10.7,10.7,0,0,0,38,12.94Zm-20.9.1c-.39,1.53-.07,2.21,1.3,2.8.22.09.46.17.69.24a13.78,13.78,0,0,0,5.38.52,9.67,9.67,0,0,0,3.76-1,2,2,0,0,0,.86-2.59A16.9,16.9,0,0,1,17.08,13Zm0,4.82c-.14,2.1-.16,2.18,1.69,3a.74.74,0,0,0,.21.07c1,.19,2.06.47,3.11.56a12.17,12.17,0,0,0,6-.88,2,2,0,0,0,1-2.68A16.7,16.7,0,0,1,17.05,17.86Zm26.69,0a16.78,16.78,0,0,1-12.16,0C31.4,20,31.47,20.09,33,20.72a12.5,12.5,0,0,0,6.74.6,18.73,18.73,0,0,0,3.17-1,1.16,1.16,0,0,0,.68-.69A11.35,11.35,0,0,0,43.74,17.84ZM29.22,8.16a16.78,16.78,0,0,1-12.12,0c-.42,1.47-.1,2.19,1.23,2.77a6.61,6.61,0,0,0,.74.28,13.21,13.21,0,0,0,5.82.44,20.28,20.28,0,0,0,3.46-1,1.24,1.24,0,0,0,.75-.7A10.72,10.72,0,0,0,29.22,8.16Z"/><path d="M29.75,28.65H20.28a2.52,2.52,0,0,0-1,.19c-3,1.25-6,2.53-9,3.77a.78.78,0,0,0-.54.85c0,3.65,0,7.3,0,11,0,1.24-.19,1.49-1.38,1.73q-2.74.56-5.49,1.08A1.16,1.16,0,1,1,2.39,45c1.47-.31,2.95-.62,4.43-.89.46-.08.61-.27.61-.74q0-5.19,0-10.38c0-.56-.17-.71-.71-.7-1.76,0-3.52,0-5.28,0-.8,0-1.26-.43-1.27-1.13A1.11,1.11,0,0,1,1.4,30H5.2c1,0,2,0,3,0a11.41,11.41,0,0,1,1.23.28A1.14,1.14,0,0,0,10,30.2c2.89-1.2,5.77-2.42,8.67-3.62a2.87,2.87,0,0,1,1.09-.22q9.84,0,19.68,0a3.81,3.81,0,0,1,4,4.16A3.85,3.85,0,0,1,40.27,34c-4.08.77-8.16,1.52-12.24,2.28-1.22.23-2.46.4-3.66.72a9,9,0,0,0-1.55.89,2.4,2.4,0,0,1-1.13.37,1,1,0,0,1-.93-.86,1.22,1.22,0,0,1,.48-1.24,8,8,0,0,1,4.14-1.77c4.73-.83,9.45-1.74,14.18-2.63,1.1-.2,1.62-.75,1.6-1.64A1.47,1.47,0,0,0,40,28.72a3.6,3.6,0,0,0-.73-.06Z"/><path d="M22.81,46c-1.18-.14-3.34-.37-5.49-.64-1.42-.18-2.83-.42-4.25-.63a4,4,0,0,1-.5-.1,1.11,1.11,0,0,1-.81-1.31,1,1,0,0,1,1.16-.93c1.25.14,2.5.37,3.75.51a67.11,67.11,0,0,0,6.75.69,21.65,21.65,0,0,0,10.23-2.51l16.6-8.46.3-.16a1.07,1.07,0,0,0,.5-1.4,1.05,1.05,0,0,0-1.42-.55c-1.41.54-2.8,1.12-4.21,1.66-1,.38-1.88-.27-1.64-1.25a1.53,1.53,0,0,1,.76-.88c1.42-.62,2.86-1.19,4.31-1.73a3.39,3.39,0,0,1,4.32,1.77,3.35,3.35,0,0,1-1.5,4.42c-2.74,1.44-5.51,2.82-8.27,4.23s-5.51,2.81-8.27,4.21A27.09,27.09,0,0,1,22.81,46Z"/></svg>