<svg id="Layer_1" data-name="Layer 1" xmlns="http://www.w3.org/2000/svg" viewBox="0 0 36 35.84"><defs><style>.cls-1{fill:#3a8ccb;}.cls-2{fill:none;stroke:#3a8ccb;stroke-miterlimit:10;stroke-width:2px;}</style></defs><path class="cls-1" d="M16.91,21.84c0-.27,0-.47,0-.61a5.75,5.75,0,0,1,.34-2.05A4.86,4.86,0,0,1,18,17.87a17.21,17.21,0,0,1,1.45-1.4A7.06,7.06,0,0,0,20.84,15a2.4,2.4,0,0,0,.32-1.2,2.79,2.79,0,0,0-.92-2.06A3.08,3.08,0,0,0,18,10.85a3,3,0,0,0-2.15.8,4.3,4.3,0,0,0-1.13,2.52l-2.07-.25a5.35,5.35,0,0,1,1.66-3.51A5.34,5.34,0,0,1,18,9.19a5.46,5.46,0,0,1,3.83,1.31,4.13,4.13,0,0,1,1.44,3.17,4,4,0,0,1-.51,2,9.18,9.18,0,0,1-2,2.2,9.72,9.72,0,0,0-1.28,1.29,3,3,0,0,0-.45.95,8.1,8.1,0,0,0-.17,1.75Zm-.12,4v-2.3h2.3v2.3Z"/><circle class="cls-2" cx="18" cy="17.94" r="16.87"/></svg>